<?xml version="1.0" encoding="UTF-8" standalone="no"?>
<!-- Created with Inkscape (http://www.inkscape.org/) -->

<svg
   width="61.548481mm"
   height="68.766273mm"
   viewBox="0 0 61.548481 68.766273"
   version="1.1"
   id="svg5"
   inkscape:version="1.1.1 (3bf5ae0d25, 2021-09-20)"
   sodipodi:docname="focused.svg"
   xmlns:inkscape="http://www.inkscape.org/namespaces/inkscape"
   xmlns:sodipodi="http://sodipodi.sourceforge.net/DTD/sodipodi-0.dtd"
   xmlns="http://www.w3.org/2000/svg"
   xmlns:svg="http://www.w3.org/2000/svg">
  <sodipodi:namedview
     id="namedview7"
     pagecolor="#ffffff"
     bordercolor="#666666"
     borderopacity="1.0"
     inkscape:pageshadow="2"
     inkscape:pageopacity="0.0"
     inkscape:pagecheckerboard="0"
     inkscape:document-units="mm"
     showgrid="false"
     inkscape:zoom="0.46554979"
     inkscape:cx="45.107957"
     inkscape:cy="-262.05575"
     inkscape:window-width="960"
     inkscape:window-height="1011"
     inkscape:window-x="0"
     inkscape:window-y="32"
     inkscape:window-maximized="0"
     inkscape:current-layer="layer1" />
  <defs
     id="defs2" />
  <g
     inkscape:label="Layer 1"
     inkscape:groupmode="layer"
     id="layer1"
     style="display:inline"
     transform="translate(-1.4787851,-1.5242893)">
    <g
       transform="matrix(0.15448105,0.00809601,-0.00809601,0.15448105,-3.4897868,-10.668987)"
       id="g1145">
      <g
         id="g1129">
        <g
           id="g1127">
          <path
             d="m 340.529,155.003 c -2.153,-18.915 0.633,-58.4513 0.819,-60.8533 C 342.529,78.9648 335.414,19.0018 321.964,24.5268 299.401,6.66576 269.351,2.72176 241.251,0.837757 182.883,-3.07624 120.791,5.90876 75.7204,45.1888 53.4316,65.5878 31.7323,95.2567 33.4765,126.149 13.2256,155.431 -15.3236,195.598 9.90814,229.831 c 8.57676,10.937 22.20796,15.01 32.98236,23.293 21.6717,17.48 35.2681,42.566 57.1455,59.942 57.96,52.083 156.377,62.963 213.323,3.723 44.035,-42.904 36.915,-107.09 29.17,-161.786 -5.208,-36.773 2.199,36.901 -2,0 z"
             transform="translate(65.0005,149)"
             fill="#ffffff"
             stroke="none"
             id="path1123" />
          <path
             d="m 227.86,0.104592 c -15.941,-0.59 -31.97,1.369998 -47.58,4.519998 -30.981,6.24001 -62.71,16.45001 -90.771,31.09001 -11.782,6.15 -22.6521,13.745 -32.455,22.494 -8.861,-4.237 -22.841,-4.581 -25.681,5.135 -0.815,2.789 -0.409,5.317 0.761,7.479 -0.341,0.194 -0.678,0.402 -1.008,0.623 -2.2352,1.4968 -3.4285,2.5859 -4.8123,3.9606 l -1.0927,1.0954 c -3.46,3.471 -3.787,9.894 0,13.321 l 0.518,0.468 0.3186,0.278 c 0.6453,0.5419 1.3378,1.0003 2.0604,1.38 C 14.847,112.287 5.83895,135.465 2.10995,159.685 c -2.1909989,14.22 -2.829999,28.44 -1.179999,42.75 0.799999,6.99 1.999999,14.45 4.448999,21.06 1.191,3.23 2.87,6.37 4.38,9.47 1.64105,3.38 4.33005,5.85 6.54005,8.87 0.24,0.31 0.62,0.47 0.99,0.48 -0.669,1.38 -1.28,2.78 -1.849,4.17 -3.271,7.99 -5.79005,16.6 -7.25005,25.11 -2.75,16.05 -1.07,34.1 11.14905,46.11 4.87,4.78 12.41,8.61 19.821,9.63 -2.371,2.44 -4.281,5.34 -5.81,8.68 -2.86,6.23 1.909,14.66 9.489,12.34 1.441,-0.44 2.87,-1 4.271,-1.62 2.179,4.33 6.84,7.26 11.84,6.51 2.91,-0.44 5.009,-1.57 6.45,-3.16 3.609,7.98 8.399,15.23 14.4699,21.63 6.419,6.78 13.5091,12.89 19.91,19.69 6.2191,6.6 9.9101,15.22 17.2401,20.66 2.279,1.69 5.77,-0.11 6.41,-2.61 2.485,-9.729 -4.208,-17.829 -10.558,-24.52 l -0.802,-0.84 c -6.811,-7.08 -14.68,-12.99 -21.93,-19.59 -7.53,-6.86 -13.591,-14.14 -19.051,-22.74 -0.4716,-0.74 -0.9418,-1.495 -1.4137,-2.258 L 67.53,336.025 c -0.111,-0.51 -0.231,-1.01 -0.37,-1.5 -0.111,-1.97 -0.77,-3.84 -2.0401,-5.56 -1.5709,-2.13 -3.6699,-3.74 -6.0099,-4.49 -0.79,-0.84 -1.611,-1.64 -2.47,-2.38 1.069,-1.17 2.01,-2.55 2.81,-4.15 1.48,-2.98 -0.25,-7.72 -4.21,-7.33 -1.1896,0.114 -2.3582,0.06 -3.5258,0.006 -1.2773,-0.059 -2.5534,-0.118 -3.8542,0.044 -0.3116,0.039 -0.623,0.08 -0.9344,0.121 -2.1368,0.283 -4.2699,0.565 -6.4266,0.269 -4.429,-0.63 -8.399,-3.03 -11.279,-6.39 -7.211,-8.4 -7.971,-20.48 -6.461,-30.96 0.6673,-4.679 1.8079,-9.277 3.0198,-13.85 l 1.8737,-7.004 c 1.0679,-3.914 2.3545,-7.97 4.8675,-11.156 7.8861,-10.001 21.3978,-2.153 29.4854,3.867 l 0.7346,0.553 c 0.07,0.05 0.13,0.07 0.2,0.07 0.43,0.7 0.89,1.39 1.37,2.05 2.649,3.58 5.859,6.76 9.1699,9.76 l 0.6754,0.616 c 0.4531,0.409 0.9107,0.814 1.3647,1.214 3.87,3.41 9.109,0.9 9.62,-3.98 0.949,-9.2 0.69,-18.5 1.279,-27.74 0.5899,-9.25 1.651,-18.47 3.2309,-27.6 1.58,-9.12 3.6201,-18.15 6.1091,-27.05 1.25,-4.46 2.62,-8.87 4.08,-13.26 1.111,-3.38 1.941,-8.86 4.87,-11.21 2.651,-2.14 7.641,-2.5 10.891,-3.19 4.54,-0.97 9.109,-1.83 13.659,-2.8 8.511,-1.83 17.011,-3.82 25.391,-6.18 8.3,-2.34 16.53,-5.1 24.5,-8.42 -2.29,3.84 -4.561,7.69 -6.811,11.55 -3.08,5.29 0.96,10.94 6.551,11.41 5.739,0.48 11.55,0.05 17.149,-1.31 1.191,-0.29 2.281,-0.62 3.291,-1.01 6.149,-0.441 12.425,-1.844 18.203,-3.268 l 2.697,-0.672 c 10.979,-2.76 21.529,-6.53 31.93,-10.98 1.165,-0.498 2.331,-1.006 3.497,-1.523 4.314,-1.302 8.563,-2.815 12.729,-4.536 15.445,2.337 31.199,1.431 46.373,-2.301 6.551,-1.61 13.671,-3.63 20.441,-6.43 3.37,5.75 8.54,10.41 14.309,13.79 0.631,4.99 0.981,10.03 1.211,15.03 0.739,15.94 1.579,31.88 2.449,47.81 l 0.28,5.158 c 1.645,30.957 2.653,61.963 2.89,92.952 0.221,28.24 -1.509,56.12 -16.809,80.68 -12.89,20.72 -33,37.21 -56.35,44.61 -14.341,4.54 -29.54,6 -44.511,4.55 -7.309,-0.71 -14.549,-2.38 -21.54,-4.62 l -1.005,-0.317 c -7.019,-2.166 -13.703,-3.236 -21.024,-4.123 -4.841,-0.59 -6.011,5.69 -3.58,8.64 5.14,6.22 10.63,10.37 18.269,13.19 6.901,2.54 14.22,4.15 21.491,5.2 15,2.16 30.13,1.92 44.95,-1.47 27.5,-6.28 51.809,-22.8 68.74,-45.21 18.59,-24.61 24.579,-54.03 24.97,-84.34 0.421,-32.434 -1.188,-65.024 -3.33,-97.404 l -0.45,-6.696 c -0.96,-14.01 -1.98,-28.07 -3.571,-42.05 2.631,0.26 5.391,-0.56 7.631,-2.81 4.364,-4.364 5.397,-11.081 5.916,-17.147 l 0.134,-1.673 c 0.42,-5.59 -0.431,-11.31 -1.96,-16.68 -2.108,-7.354 -5.642,-13.546 -10.634,-18.731 6.686,-7.206 10.287,-17.4044 11.081,-27.0324 0.573,-6.938 1.106,-16.057 -6.55,-19.29 -1.512,-0.639 -3.077,-0.875 -4.651,-0.842 0.404,-2.471 0.677,-4.972 0.83,-7.503 0.245,-4.024 -3.884,-8.435 -8.017,-8.019 -1.256,0.127 -2.512,0.262 -3.768,0.393 0.751,-1.201 1.505,-2.399 2.279,-3.585 3.254,-4.977 -1.144,-10.526 -6.283,-10.951 -13.659,-1.129 -27.179,-3.93 -40.211,-8.173 -13.092,-4.264 -26.768,-8.555 -39.202,-14.49001 -0.878,-0.419 -1.846,-0.109 -2.448,0.495 C 256.273,1.69209 241.083,0.631691 229.089,0.152327 Z M 50.9901,264.032 c -4.6431,-2.159 -10.9316,-5.083 -15.7598,-3.507 -2.2101,0.72 -2.861,3.06 -1.861,4.78 h -0.0801 l 0.2073,0.331 c 0.9184,1.398 2.0968,2.346 3.3889,3.246 l 0.6039,0.413 c -1.62,1.15 -2.8601,2.81 -3.4001,4.93 -0.869,3.37 0.54,7.51 3.7401,9.2 1.281,0.67 2.6699,1.04 4.1199,1.11 2.0455,0.09 3.7521,-0.852 5.3002,-2.03 l 0.4599,-0.36 c 0.681,-0.54 1.231,-1.26 1.6699,-2.04 3.7311,4.82 6.8701,10.51 13.46,10.69 3.1501,0.09 6.7101,-2.42 7.36,-5.61 0.071,-0.31 0.1301,-0.62 0.1911,-0.92 0.609,-2.99 0.1699,-6.49 -2.2801,-8.63 -4.9199,-4.28 -9.9999,-8.33 -15.9699,-11.07 -0.3702,-0.17 -0.7542,-0.349 -1.1502,-0.533 z"
             transform="translate(48.00005,65.00051)"
             fill="#000000"
             fill-rule="evenodd"
             stroke="none"
             id="path1125" />
        </g>
      </g>
      <g
         transform="translate(159,186)"
         id="g1135">
        <g
           id="g1133">
          <path
             d="M 182.288,0.0155884 181.632,0.00116045 C 175.238,-0.058867 169.29,2.22009 163.402,4.47582 c -0.546,0.20942 -1.092,0.41863 -1.638,0.62575 l -3.996,1.50055 c -4.864,1.79972 -10.656,3.62518 -15.366,1.82347 l -0.263,-0.09558 c -5.797,-2.00141 -12.49,2.65859 -14.014,8.20359 -1.713,6.232 2.101,12.402 8.106,14.277 12.394,3.87 25.083,-2.0379 36.305,-7.2627 0.226,-0.1054 0.452,-0.2106 0.677,-0.3154 l 3.245,-1.4988 c 1.17,-0.5483 2.394,-1.1625 3.658,-1.7963 8.266,-4.1483 18.207,-9.1369 25.859,-1.9728 0.405,0.38 1.088,0.007 0.94,-0.547 C 204.051,6.74259 193.016,0.387588 182.288,0.0155884 Z M 50.3878,7.76789 c 6.8579,-0.32784 13.1733,1.61497 19.5259,3.56921 3.1811,0.9786 6.3715,1.9601 9.6441,2.6608 9.064,1.942 17.994,0.776 26.8092,-1.694 14.306,-4.00901 20.22,17.891 6.109,22.159 -10.276,3.108 -21.0962,3.324 -31.6412,1.722 -9.367,-1.424 -17.219,-5.984 -26.15,-8.639 C 47.0203,25.2685 38.0039,26.215 29.9097,27.2872 l -3.1419,0.4227 c -4.67,0.629 -9.365,1.26 -13.989,2.173 -4.01204,0.793 -8.01704,2.244 -12.112036,2.412 -0.465,0.02 -0.859,-0.584 -0.566,-0.987 C 4.85765,24.7773 14.0258,19.6244 21.3185,16.1876 l 0.4943,-0.2317 c 9.002,-4.197 18.552,-7.71001 28.575,-8.18801 z m -3.772,47.93031 0.0013,0.2253 c 0.0869,6.4626 4.4543,19.6098 12.9068,19.6098 8.364,0 10.1067,-13.8811 9.8406,-20.2317 l -0.021,-0.4164 C 68.7408,44.6706 65.2589,34.7618 59.5239,34.7618 c -9.1801,0 -12.8941,14.5596 -12.9081,20.9364 z m 135.1562,0.2253 0.002,-0.2253 c -0.014,-6.3768 -3.728,-20.9364 -12.908,-20.9364 -5.592,0 -9.042,9.4196 -9.769,19.358 l -0.051,0.7654 c -0.362,6.1361 1.268,20.6481 9.82,20.6481 8.452,0 12.819,-13.1472 12.906,-19.6098 z m -41.024,42.1157 c 8.123,-11.3793 -3.383,-22.0824 -10.934,-26.6725 -1.978,-1.4199 -0.408,-6.1237 3.819,-5.3967 38.397,6.597 18.502,72.738 -30.521,36.442 -5.8368,-4.7079 1.231,-15.0785 7.522,-11.0463 0.319,0.2447 0.653,0.5033 1.002,0.7729 7.068,5.4643 19.999,15.4624 29.112,5.9006 z m -2.876,67.8778 c -6.787,2.668 -14.806,3.298 -21.811,1.025 -6.699,-2.174 -12.781,-7.013 -16.4613,-13.098 -3.278,-5.42 -4.647,-11.852 -2.7097,-18.265 0.0927,-0.307 0.3934,-0.503 0.6834,-0.579 1.585,1.443 2.5646,2.876 3.5426,4.302 1.649,2.404 3.303,4.784 5.572,6.84 3.301,2.99 7.75,5.419 12.165,6.22 4.322,0.786 8.746,0.091 12.617,-1.978 2.354,-1.257 4.257,-2.938 6.141,-4.627 2.052,-1.839 4.072,-3.706 6.898,-4.745 2.265,-0.832 4.644,-0.13 6.472,1.263 1.964,1.496 3.377,3.838 3.298,6.287 -0.121,3.794 -1.782,6.959 -4.191,9.57 -3.258,3.53 -7.865,6.074 -12.216,7.785 z"
             transform="translate(41.00024,65.00041)"
             fill="#000000"
             fill-rule="evenodd"
             stroke="none"
             id="path1131" />
        </g>
      </g>
      <g
         transform="translate(123,338)"
         id="g1137" />
      <g
         transform="translate(47,241)"
         id="g1143">
        <g
           id="g1141">
          <path
             d="m 316.813,3.10942 c 8.133,-1.817 77.696,-10.306 79.652,11.86398 1.562,3.559 1.128,22.601 -5.614,16.959 -17.079,12.878 -12.152,37.582 -24.577,53.952 -16.477,23.5846 -71.228,20.8386 -78.219,-47.198 -6.941,-2.7713 -13.056,-1.6755 -19.304,-0.5557 -2.816,0.5045 -5.658,1.014 -8.616,1.1767 9.617,72.2236 -107.638,102.6136 -116.831,14.563 -1.338,-11.403 -4.787,-10.393 -14.945,-13.661 -1.829,-0.384 -3.92,-0.749 -5.924,-1.326 -3.333,1.11 -5.128,-0.4759 -7.764,-2.8052 -7.742,-6.8413 -22.7411,-20.0953 -105.29591,9.7052 -0.089,4.604 -3.308,6.878 -6.53,4.643 -21.22799,-29.015 82.55601,-36.852 105.28991,-36.031 4.427,-1.272 8.605,-1.995 12.041,-0.647 18.152,-14.600981 104.741,-22.82098 130.454,5.842 17.133,5.3901 31.576,-1.4069 46.181,-8.2804 6.549,-3.08213 13.131,-6.17961 20.002,-8.20058 z m 51.478,9.34698 c -0.01,0.013 -0.022,0.024 -0.032,0.037 -0.077,-0.047 -0.153,-0.095 -0.232,-0.141 0.087,0.036 0.179,0.067 0.264,0.104 z m -16.306,75.939 c -15.008,7.228 -35.946,-3.433 -46.037,-14.6 -3.673,-4.066 -6.507,-15.699 -5.094,-23.077 3.827,-19.981 18.207,-31.973 33.388,-36.068 21.044,-5.67798 42.222,8.706 39.753,25.68 -2.341,16.087 -5.888,39.422 -22.01,48.065 z m -141.741,8.099 c 20.9,-5.647 38.387,-24.706 39.59,-46.481 0.461,-9.236 -2.241,-18.359 -8.851,-24.68 -22.582,-7.164 -67.795,-11.612 -86.378,14.483 -4.725,6.634 -2.964,14.368 -2.215,16.902 7.538,25.501 24.18,49.1716 57.854,39.776 z"
             transform="translate(1.000312,17.99998)"
             fill="#000000"
             fill-rule="evenodd"
             stroke="none"
             id="path1139" />
        </g>
      </g>
    </g>
  </g>
</svg>
