<?xml version="1.0" standalone="no"?>
<svg style="width: 585px; height: 585px; justify-content: center; align-self: center; transform: scale(-1, 1);" viewBox="-350 -150 1500 1500" xmlns="http://www.w3.org/2000/svg" width="877" height="877"><g transform="rotate(1 410.36882877349854 626.2966537475586)"><g transform="translate(0 459)"><path d="M21.7014 752.639C26.9744 760.65 37.3464 759.418 41.7994 753.213C92.5054 765.027 144.488 760.371 195.899 757.475C340.772 751.58 486.462 770.058 630.749 750.728C646.055 747.667 663.87 749.13 676.394 738.514C696.425 715.041 692.111 679.402 688.92 650.812C663.343 489.648 626.98 327.006 608.841 164.806C607.828 149.356 614.195 130.159 619.903 115.635C621.313 112.933 630.224 110.285 634.848 107.168C649.039 96.9822 646.738 78.7282 634.436 68.0172C594.605 39.9412 539.157 49.7519 496.905 60.1104C488.807 29.6976 479.705 9.69509 464.288 7.71422C434.943 3.94392 363.76 -7.57751 341.834 7.71422C331.344 15.0297 324.611 40.8069 317.06 53.3642C261.993 52.3862 150.23 -21.2878 127.253 61.6752C108.585 62.9642 90.0954 79.2622 93.6664 98.8202C69.4554 120.214 88.5514 152.293 88.2164 178.922C85.0334 235.421 54.4614 285.949 41.7424 340.527C12.6694 446.382 -20.2366 638.931 15.8224 742.256C15.0464 741.851 13.3514 742.461 14.4494 743.32C18.5324 744.472 19.0634 749.615 21.7014 752.639Z" transform="translate(63.99979 -41.44802)" fill="#FFFFFF" stroke="none"></path><path d="M794.424 692.582C794.405 692.652 794.375 692.732 794.344 692.802C795.164 694.062 795.785 695.462 796.195 696.882C798.454 704.662 793.345 723.472 786.794 727.302C781.034 730.671 774.325 731.112 767.835 731.612C760.545 732.182 753.245 732.732 745.945 733.292C693.534 737.312 641.135 741.892 588.695 745.312C587.631 745.381 586.566 745.455 585.499 745.528C574.464 746.291 563.278 747.063 552.865 742.623C543.875 738.782 536.825 731.802 532.594 723.001C528.255 713.982 526.224 693.312 525.515 683.362C525.294 680.302 525.094 677.192 525.005 674.092C523.264 673.602 521.755 672.251 521.075 669.902C514.935 648.632 513.325 625.332 512.275 603.282C511.245 581.602 510.414 559.962 510.244 538.251C509.634 459.892 514.034 381.562 521.215 303.552C524.815 264.421 528.944 225.342 533.845 186.342C533.955 185.432 534.075 184.532 534.195 183.623C516.635 191.751 497.625 196.222 478.185 196.102C462.674 196.001 445.414 193.352 431.225 185.982C429.835 191.972 428.495 197.972 427.165 203.972C408.915 286.322 397.764 369.972 392.975 454.162C390.585 496.302 389.884 538.542 390.844 580.742C391.314 601.842 392.505 622.932 394.044 643.982C394.805 654.492 395.674 665.012 396.254 675.532C396.581 681.304 396.438 687.083 396.294 692.858C396.267 693.976 396.239 695.094 396.214 696.212C397.085 696.972 397.865 697.862 398.524 698.862C404.904 708.532 407.724 720.421 406.224 731.921C405.404 738.171 401.644 742.953 394.954 743.192C363.065 744.352 331.174 745.512 299.284 746.671C260.078 748.102 220.876 749.789 181.676 751.464C179.012 669.158 173.162 586.973 171.301 504.635C170.726 479.227 170.558 453.81 171.061 428.399C171.162 423.25 163.162 423.25 163.06 428.399C162.893 436.831 162.819 445.261 162.784 453.692C156.792 448.993 150.129 445.267 143.735 441.074C139.417 438.242 135.406 445.166 139.697 447.981C147.281 452.955 155.353 457.129 161.928 463.484C162.195 463.742 162.472 463.939 162.755 464.105C162.902 545.095 168.447 626.027 171.968 706.911C172.619 721.873 173.195 736.837 173.678 751.806C159.073 752.429 144.469 753.049 129.865 753.652C115.914 754.232 101.954 754.682 88.0045 755.182L86.5313 755.235C74.146 755.683 61.5699 756.137 49.3545 753.742C38.0845 751.522 28.2445 745.412 21.8545 735.832C18.8445 731.312 16.8245 726.092 16.2645 720.742C13.7745 721.352 10.6645 720.203 9.64449 717.352C5.62449 706.182 1.26449 695.912 0.324488 683.902C-0.605512 672.112 0.594488 660.421 2.26449 648.762C5.56449 625.852 12.4445 603.732 18.6945 581.512C24.2345 561.782 30.3545 542.192 34.9445 522.203C39.7345 501.302 42.1045 480.382 42.5245 458.942C42.7107 449.282 42.6606 439.622 42.6106 429.963C42.5451 417.314 42.4795 404.667 42.9445 392.022C43.6545 372.462 45.5145 352.982 48.2945 333.602C53.8145 295.142 64.2245 257.212 80.7345 221.972C88.7645 204.812 97.9445 187.782 108.684 172.142C113.984 164.421 119.994 156.852 126.284 149.902C129.094 146.802 131.964 143.703 134.954 140.782C122.884 136.962 114.254 126.972 116.724 112.692C117.984 105.453 122.224 98.8324 127.924 94.2724C128.164 94.0724 128.414 93.8824 128.664 93.7034C122.684 83.8924 126.184 72.1624 132.864 63.7324C140.994 53.4724 153.154 46.1124 166.004 43.8124C165.904 43.5224 165.804 43.2224 165.704 42.9324C162.835 34.1124 166.064 25.0724 173.204 19.3924C184.834 10.1324 200.844 5.37339 215.234 2.58239C231.035 -0.477612 247.154 -0.757612 263.084 1.42139C270.504 2.44239 277.774 4.13239 284.895 6.43239C292.324 8.82239 300.005 11.2514 306.775 15.1524C317.094 21.0824 332.734 30.3524 328.704 44.7124C328.194 46.5124 325.844 45.9534 325.665 44.3024C324.844 36.8224 311.984 33.2924 306.074 30.6234C299.495 27.6424 292.344 24.6924 285.384 22.7514C271.194 18.7824 256.294 17.1624 241.585 17.8024C226.964 18.4424 212.314 21.5624 198.755 27.0624C195.005 28.5824 185.094 31.1524 183.414 35.6234C182.054 39.2224 187.044 43.2124 190.454 45.5824C191.145 46.0724 191.774 46.4924 192.274 46.8224C200.465 52.3224 195.475 67.0824 185.224 63.5324C184.484 63.2724 183.734 63.0624 182.984 62.8924C173.035 60.5824 161.895 65.1024 154.184 71.2124C151.084 73.6624 146.554 77.5524 146.074 81.8324C145.917 83.26 145.931 83.26 146.085 83.2597C146.213 83.2595 146.439 83.2592 146.744 84.0924C146.814 84.2924 146.895 84.4324 146.964 84.5324C147.624 84.2724 148.285 84.0124 148.954 83.7424C153.624 81.8624 158.904 85.4024 160.714 89.5124C162.704 94.0624 160.854 99.4024 156.634 101.962C154.824 103.062 152.944 103.792 151.034 104.203C145.964 106.282 140.124 109.373 137.984 114.072C135.914 118.612 137.794 120.542 142.044 121.421C148.246 122.711 155.467 121.349 161.735 120.167C161.885 120.139 162.035 120.111 162.184 120.082C170.285 118.552 178.264 116.432 186.164 114.082C190.087 112.92 194.025 111.705 197.976 110.487C225.561 101.979 253.823 93.2624 282.574 100.453C282.215 99.5824 281.865 98.7034 281.514 97.8224C280.764 95.9424 283.604 95.0424 284.594 96.5224C286.114 98.7924 287.604 101.082 289.074 103.402C290.044 104.352 290.725 105.482 291.145 106.692C299.215 119.703 306.564 133.312 313.254 147.222C318.854 157.171 323.884 167.432 328.294 177.962C334.065 191.782 338.574 205.932 342.595 220.302C346.134 230.852 349.424 241.482 352.474 252.182C355.544 259.842 359.044 267.032 360.374 275.292C360.594 276.642 360.285 278.032 359.624 279.192C367.004 309.242 372.525 339.751 376.304 370.462C377.435 379.712 378.435 388.972 379.254 398.262C382.025 367.682 385.714 337.182 390.275 306.802C396.635 264.432 404.764 222.322 414.624 180.632C419.235 161.182 423.944 141.692 430.355 122.751C435.344 108.001 441.074 93.0224 449.385 79.7424C443.215 79.2424 437.014 78.8624 430.884 78.1124C421.484 76.9724 412.115 75.6234 402.785 74.0124C393.044 72.3224 383.384 70.1624 373.784 67.7924C364.454 65.5014 355.465 62.0424 346.365 58.9824C344.965 58.5124 345.544 56.5824 346.965 56.8124C366.145 60.0014 385.754 62.0324 405.104 63.9924C405.819 64.0643 406.535 64.1365 407.252 64.2089C423.608 65.8599 440.738 67.5889 457.234 66.8024C459.005 66.7224 460.764 66.6124 462.525 66.4724C468.474 65.9924 471.174 72.9824 468.885 77.5524C463.915 87.4324 458.574 97.1624 454.284 107.352C450.034 117.442 446.595 127.882 443.504 138.373C439.754 151.132 436.435 164.022 433.344 176.972C439.214 178.152 445.075 179.392 451.025 180.072C460.074 181.123 469.084 181.421 478.185 180.892C496.254 179.832 514.214 175.082 530.195 166.552C532.455 165.342 534.665 165.222 536.594 165.822C538.315 153.612 540.214 141.442 542.315 129.312L542.315 129.052C542.884 114.842 544.895 100.742 545.615 86.5424C546.195 75.1524 545.895 63.4824 547.025 52.0824C546.984 51.8924 547.005 51.6924 547.084 51.5124C547.284 49.5524 547.525 47.6024 547.825 45.6624C547.914 45.0524 548.734 45.2034 548.905 45.6624C549.754 47.8524 550.474 50.1024 551.094 52.4024C570.604 60.0224 589.825 68.4324 609.705 75.0924C620.204 78.6124 630.834 81.7424 641.335 85.2514C646.775 87.0624 652.134 89.0124 657.505 91.0224C658.594 91.4324 659.674 91.8024 660.734 92.1714C661.375 91.6424 662.125 91.1714 662.995 90.7724C667.474 88.7034 675.164 87.3524 677.764 82.5524C677.807 82.4686 677.809 82.1721 677.812 81.9284C677.814 81.6512 677.816 81.4423 677.875 81.6924C677.794 81.2624 677.734 80.9724 677.705 80.7924C677.745 80.9924 677.794 81.2424 677.825 81.3024C677.825 81.2514 677.784 80.9624 677.665 80.2324C677.665 80.2224 677.654 80.2324 677.654 80.2324C677.674 80.5724 677.475 80.3624 677.344 80.1124C677.125 80.0224 676.875 79.9534 676.604 79.8924C671.705 78.8524 668.955 73.6324 669.505 69.0224C670.125 63.8024 674.344 60.9424 679.234 60.4324C681.444 60.2034 684.824 60.0724 686.544 58.5224C688.503 56.7557 686.794 55.9682 685.013 55.1471C684.657 54.9829 684.298 54.8174 683.964 54.6424C676.854 50.9324 669.055 48.5324 661.234 46.8924C653.234 45.2124 645.095 44.5424 636.935 44.9214C629.144 45.2924 621.465 48.1234 613.755 48.1524C613.214 48.1524 612.844 47.4124 613.294 47.0324C617.104 43.7724 622.274 42.3824 627.025 41.0324C632.495 39.4724 638.094 38.4324 643.755 37.8124C654.965 36.5724 666.334 37.3024 677.294 39.9324C686.935 42.2514 700.784 45.3024 701.905 57.1624C702.505 63.4624 699.984 68.1624 696.065 71.7824C697.984 76.0724 698.724 80.9924 698.084 85.4324C696.604 95.7124 687.955 103.442 678.445 107.542C678.415 107.792 678.365 108.042 678.324 108.282C676.655 117.222 673.885 126.182 671.174 134.862C669.625 139.852 668.034 144.822 666.404 149.782C688.745 174.602 705.185 204.632 716.695 235.873C744.385 311.022 741.034 392.142 755.145 470.052C762.334 509.742 775.575 547.842 784.945 587.001C789.674 606.772 793.634 626.712 795.474 646.982C796.345 656.612 796.695 666.292 796.365 675.953C796.174 681.382 796.135 687.402 794.424 692.582ZM586.684 343.882C568.594 416.373 556.454 490.162 550.504 564.642C549.294 579.762 548.444 594.862 547.964 609.972C547.484 613.912 547.024 617.862 546.594 621.812C544.964 636.751 543.714 651.932 543.824 666.972C543.874 673.722 544.084 680.442 544.544 687.171C543.744 684.921 543.004 682.662 542.284 680.412C540.814 675.802 539.844 671.022 538.344 666.442C537.104 662.652 535.504 659.022 534.014 655.352L534.014 655.342C534.351 644.088 533.864 632.756 533.38 621.489C533.217 617.71 533.055 613.94 532.924 610.182C532.254 590.802 531.424 571.442 530.994 552.052C530.134 513.272 530.564 474.462 531.964 435.703C534.774 357.602 541.874 279.873 549.034 202.092C551.024 180.462 553.164 158.842 554.644 137.171C556.134 115.272 556.734 93.3324 556.904 71.3734C556.914 69.7924 554.514 69.3734 554.074 70.9024C553.684 65.6924 552.995 60.4924 551.844 55.4624C569.094 66.4624 587.284 75.9724 605.115 85.9724C614.505 91.2424 623.854 96.6024 633.534 101.322C638.854 103.921 644.224 106.312 649.704 108.572C650.611 108.946 651.512 109.342 652.41 109.737C657.139 111.817 661.812 113.872 667.064 112.501C667.604 112.362 668.115 112.162 668.604 111.902C667.894 113.251 667.185 114.592 666.505 115.953C664.145 120.642 661.894 125.352 659.714 130.102C659.135 130.532 658.625 131.123 658.224 131.892C657.164 133.962 656.135 136.052 655.134 138.171C654.935 137.982 654.734 137.792 654.534 137.602C653.695 136.812 652.534 138.001 653.274 138.862C653.615 139.251 653.945 139.632 654.274 140.022C647.755 154.052 642.454 168.802 636.995 183.203C630.284 200.902 623.924 218.732 617.934 236.682C606.125 271.992 595.704 307.762 586.684 343.882ZM656.703 374.626C646.253 381.017 632.531 376.584 622.188 372.352C617.479 370.425 619.553 362.689 624.315 364.638L624.416 364.68C632.284 367.9 643.725 372.582 651.997 368.109C660.287 363.625 660.661 351.291 660.724 343.152C660.763 337.998 668.761 338.002 668.724 343.152C668.64 354.225 667.159 368.23 656.703 374.626ZM215.444 397.839C213.711 397.71 212.027 396.705 211.587 394.903C208.886 383.845 206.771 371.799 209.283 360.52C210.403 355.489 218.114 357.63 216.997 362.646C215.016 371.54 216.59 381.154 218.647 390.023C241.547 391.026 264.205 384.767 286.388 378.64C292.374 376.987 298.325 375.343 304.236 373.854C309.24 372.594 311.352 380.312 306.363 381.568C300.41 383.068 294.415 384.717 288.384 386.377C264.521 392.943 240.096 399.664 215.444 397.839ZM695.284 536.687C695.338 591.434 700.041 656.977 706.804 711.271C707.432 716.312 715.44 716.375 714.804 711.271C708.041 656.977 703.338 591.434 703.284 536.687C703.279 531.54 695.279 531.531 695.284 536.687ZM610.581 600.914C617.821 610.292 626.818 617.68 637.36 623.084C641.933 625.429 645.987 618.529 641.398 616.177C632.164 611.443 623.862 605.13 617.49 596.876C614.388 592.858 607.435 596.837 610.581 600.914ZM233.591 669.165C263.557 646.15 294.714 624.812 328.055 606.957C332.595 604.525 328.56 597.617 324.017 600.048C290.676 617.904 259.52 639.243 229.553 662.257C225.526 665.349 229.507 672.302 233.591 669.165Z" transform="translate(11.99981 -26.99999)" fill="#000000" fill-rule="evenodd" stroke="none"></path></g><g transform="translate(225 0)"><g><g><path d="M340.529 155.003C338.376 136.088 341.162 96.5517 341.348 94.1497C342.529 78.9648 335.414 19.0018 321.964 24.5268C299.401 6.66576 269.351 2.72176 241.251 0.837757C182.883 -3.07624 120.791 5.90876 75.7204 45.1888C53.4316 65.5878 31.7323 95.2567 33.4765 126.149C13.2256 155.431 -15.3236 195.598 9.90814 229.831C18.4849 240.768 32.1161 244.841 42.8905 253.124C64.5622 270.604 78.1586 295.69 100.036 313.066C157.996 365.149 256.413 376.029 313.359 316.789C357.394 273.885 350.274 209.699 342.529 155.003C337.321 118.23 344.728 191.904 340.529 155.003Z" transform="translate(65.0005 149)" fill="#FFFFFF" stroke="none"></path><path d="M227.86 0.104592C211.919 -0.485408 195.89 1.47459 180.28 4.62459C149.299 10.8646 117.57 21.0746 89.509 35.7146C77.727 41.8646 66.8569 49.4596 57.054 58.2086C48.193 53.9716 34.213 53.6276 31.373 63.3436C30.558 66.1326 30.964 68.6606 32.134 70.8226C31.793 71.0166 31.456 71.2246 31.126 71.4456C28.8908 72.9424 27.6975 74.0315 26.3137 75.4062L25.221 76.5016C21.761 79.9726 21.434 86.3956 25.221 89.8226L25.739 90.2906L26.0576 90.5686C26.7029 91.1105 27.3954 91.5689 28.118 91.9486C14.847 112.287 5.83895 135.465 2.10995 159.685C-0.0810489 173.905 -0.720049 188.125 0.929951 202.435C1.72995 209.425 2.92995 216.885 5.37895 223.495C6.56995 226.725 8.24895 229.865 9.75895 232.965C11.4 236.345 14.089 238.815 16.299 241.835C16.539 242.145 16.919 242.305 17.289 242.315C16.62 243.695 16.009 245.095 15.44 246.485C12.169 254.475 9.64995 263.085 8.18995 271.595C5.43995 287.645 7.11995 305.695 19.339 317.705C24.209 322.485 31.749 326.315 39.16 327.335C36.789 329.775 34.879 332.675 33.35 336.015C30.49 342.245 35.259 350.675 42.839 348.355C44.28 347.915 45.709 347.355 47.11 346.735C49.289 351.065 53.95 353.995 58.95 353.245C61.86 352.805 63.959 351.675 65.4 350.085C69.009 358.065 73.799 365.315 79.8699 371.715C86.2889 378.495 93.379 384.605 99.7799 391.405C105.999 398.005 109.69 406.625 117.02 412.065C119.299 413.755 122.79 411.955 123.43 409.455C125.915 399.726 119.222 391.626 112.872 384.935L112.07 384.095C105.259 377.015 97.39 371.105 90.14 364.505C82.61 357.645 76.549 350.365 71.089 341.765C70.6174 341.025 70.1472 340.27 69.6753 339.507L67.53 336.025C67.419 335.515 67.299 335.015 67.16 334.525C67.049 332.555 66.39 330.685 65.1199 328.965C63.549 326.835 61.45 325.225 59.11 324.475C58.32 323.635 57.499 322.835 56.64 322.095C57.709 320.925 58.65 319.545 59.45 317.945C60.93 314.965 59.2 310.225 55.24 310.615C54.0504 310.729 52.8818 310.675 51.7142 310.621C50.4369 310.562 49.1608 310.503 47.86 310.665C47.5484 310.704 47.237 310.745 46.9256 310.786C44.7888 311.069 42.6557 311.351 40.499 311.055C36.07 310.425 32.1 308.025 29.22 304.665C22.009 296.265 21.249 284.185 22.759 273.705C23.4263 269.026 24.5669 264.428 25.7788 259.855L27.6525 252.851C28.7204 248.937 30.007 244.881 32.52 241.695C40.4061 231.694 53.9178 239.542 62.0054 245.562L62.74 246.115C62.81 246.165 62.87 246.185 62.94 246.185C63.37 246.885 63.83 247.575 64.31 248.235C66.959 251.815 70.169 254.995 73.4799 257.995L74.1553 258.611C74.6084 259.02 75.066 259.425 75.52 259.825C79.39 263.235 84.629 260.725 85.14 255.845C86.089 246.645 85.83 237.345 86.419 228.105C87.0089 218.855 88.07 209.635 89.6499 200.505C91.2299 191.385 93.27 182.355 95.759 173.455C97.009 168.995 98.379 164.585 99.839 160.195C100.95 156.815 101.78 151.335 104.709 148.985C107.36 146.845 112.35 146.485 115.6 145.795C120.14 144.825 124.709 143.965 129.259 142.995C137.77 141.165 146.27 139.175 154.65 136.815C162.95 134.475 171.18 131.715 179.15 128.395C176.86 132.235 174.589 136.085 172.339 139.945C169.259 145.235 173.299 150.885 178.89 151.355C184.629 151.835 190.44 151.405 196.039 150.045C197.23 149.755 198.32 149.425 199.33 149.035C205.479 148.594 211.755 147.191 217.533 145.767L220.23 145.095C231.209 142.335 241.759 138.565 252.16 134.115C253.325 133.617 254.491 133.109 255.657 132.592C259.971 131.29 264.22 129.777 268.386 128.056C283.831 130.393 299.585 129.487 314.759 125.755C321.31 124.145 328.43 122.125 335.2 119.325C338.57 125.075 343.74 129.735 349.509 133.115C350.14 138.105 350.49 143.145 350.72 148.145C351.459 164.085 352.299 180.025 353.169 195.955L353.449 201.113C355.094 232.07 356.102 263.076 356.339 294.065C356.56 322.305 354.83 350.185 339.53 374.745C326.64 395.465 306.53 411.955 283.18 419.355C268.839 423.895 253.64 425.355 238.669 423.905C231.36 423.195 224.12 421.525 217.129 419.285L216.124 418.968C209.105 416.802 202.421 415.732 195.1 414.845C190.259 414.255 189.089 420.535 191.52 423.485C196.66 429.705 202.15 433.855 209.789 436.675C216.69 439.215 224.009 440.825 231.28 441.875C246.28 444.035 261.41 443.795 276.23 440.405C303.73 434.125 328.039 417.605 344.97 395.195C363.56 370.585 369.549 341.165 369.94 310.855C370.361 278.421 368.752 245.831 366.61 213.451L366.16 206.755C365.2 192.745 364.18 178.685 362.589 164.705C365.22 164.965 367.98 164.145 370.22 161.895C374.584 157.531 375.617 150.814 376.136 144.748L376.27 143.075C376.69 137.485 375.839 131.765 374.31 126.395C372.202 119.041 368.668 112.849 363.676 107.664C370.362 100.458 373.963 90.2596 374.757 80.6316C375.33 73.6936 375.863 64.5746 368.207 61.3416C366.695 60.7026 365.13 60.4666 363.556 60.4996C363.96 58.0286 364.233 55.5276 364.386 52.9966C364.631 48.9726 360.502 44.5616 356.369 44.9776C355.113 45.1046 353.857 45.2396 352.601 45.3706C353.352 44.1696 354.106 42.9716 354.88 41.7856C358.134 36.8086 353.736 31.2596 348.597 30.8346C334.938 29.7056 321.418 26.9046 308.386 22.6616C295.294 18.3976 281.618 14.1066 269.184 8.17159C268.306 7.75259 267.338 8.06259 266.736 8.66659C256.273 1.69209 241.083 0.631691 229.089 0.152327L227.86 0.104592ZM50.9901 264.032C46.347 261.873 40.0585 258.949 35.2303 260.525C33.0202 261.245 32.3693 263.585 33.3693 265.305L33.2892 265.305L33.4965 265.636C34.4149 267.034 35.5933 267.982 36.8854 268.882L37.4893 269.295C35.8693 270.445 34.6292 272.105 34.0892 274.225C33.2202 277.595 34.6292 281.735 37.8293 283.425C39.1103 284.095 40.4992 284.465 41.9492 284.535C43.9947 284.625 45.7013 283.683 47.2494 282.505L47.7093 282.145C48.3903 281.605 48.9403 280.885 49.3792 280.105C53.1103 284.925 56.2493 290.615 62.8392 290.795C65.9893 290.885 69.5493 288.375 70.1992 285.185C70.2702 284.875 70.3293 284.565 70.3903 284.265C70.9993 281.275 70.5602 277.775 68.1102 275.635C63.1903 271.355 58.1103 267.305 52.1403 264.565C51.7701 264.395 51.3861 264.216 50.9901 264.032Z" transform="translate(48.00005 65.00051)" fill="#000000" fill-rule="evenodd" stroke="none"></path></g></g><g transform="translate(159 186)"><g><path d="M158.318 0.693899C152.624 -0.294101 146.406 -0.326101 140.801 1.2469C136.392 2.4829 129.461 5.2939 127.556 9.7969C127.172 10.7059 127.178 12.1069 128.286 12.5789C129.782 13.0739 132.392 13.3339 132.12 12.7759C133.404 12.6387 134.699 12.3881 136.002 12.1362C138.05 11.74 140.115 11.3407 142.172 11.3749C146.542 11.4479 150.621 12.2129 154.693 13.8459C158.359 15.3159 161.795 17.4139 164.72 20.0749C168.265 23.2989 170.235 28.1409 174.422 30.5579C179.558 33.5219 185.507 29.6969 185.778 24.0419C186.103 17.2698 180.049 11.7076 174.976 7.88481L174.436 7.4819C169.789 4.0409 164.01 1.6819 158.318 0.693899ZM11.2575 13.4754C20.3265 5.4474 36.8055 -2.3056 49.0345 1.6454C56.0655 3.9164 59.1305 15.2454 51.2815 18.8364C42.1925 22.9944 31.7135 21.3024 22.4625 25.6124C18.5775 27.4234 14.9235 29.6864 12.2185 33.0054C10.0875 35.6214 7.91949 39.0634 4.83749 40.5714C4.02749 40.9684 2.93049 40.9784 2.28149 40.2424C-4.47451 32.6004 5.35849 18.6964 11.2575 13.4754ZM183.351 63.4506C187.073 48.5286 170.526 33.8726 156.389 35.0376C149.225 35.6286 142.842 39.7526 138.922 45.7026C136.183 49.8606 133.59 58.1526 137.91 62.1356C138.52 62.6976 139.347 62.6636 139.965 62.1356C142.475 59.9866 143.924 56.4336 146.347 54.0056C149.03 51.3166 152.561 49.4036 156.389 49.1456C159.862 48.9116 163.093 50.4356 165.367 53.0596C168.122 56.2376 168.018 59.6236 169.057 63.4506C170.945 70.4056 181.566 70.6106 183.351 63.4506ZM38.1784 39.9406C45.5584 38.6316 53.1184 40.4666 59.2254 44.7846L59.6882 45.1175C65.5717 49.4203 72.1545 56.9758 68.7784 64.3926C67.4234 67.3706 63.3654 67.8376 60.7904 66.4876C56.5034 64.2396 55.7264 58.7086 51.9014 55.6476C48.7644 53.1386 44.5404 51.6166 40.5004 51.9836C31.0094 52.8456 25.1714 62.2066 22.2234 70.2736C21.8464 71.3056 20.3314 71.7066 19.7394 70.5986C12.7884 57.6066 25.0924 42.2626 38.1784 39.9406ZM129.748 109.04C137.871 97.6606 126.365 86.9575 118.814 82.3675C116.836 80.9475 118.406 76.2437 122.633 76.9707C161.03 83.5677 141.135 149.708 92.1117 113.413C86.2751 108.705 93.3431 98.3342 99.6339 102.366C99.9529 102.611 100.287 102.87 100.636 103.139C107.704 108.604 120.635 118.602 129.748 109.04ZM74.1496 134.293C79.7437 125.091 91.6675 147.632 92.9344 151.508C94.0565 154.942 94.7972 158.459 95.1736 162.017C99.5106 162.989 104.014 162.991 108.458 162.139C115.063 160.872 119.1 157.322 124.84 154.273C128.805 152.166 133.802 154.636 135.864 158.13C138.289 162.243 136.744 166.511 133.554 169.577C127.505 175.391 115.603 176.727 107.707 175.183C103.183 174.299 99.0371 172.602 95.3756 170.136C95.3514 170.597 95.3352 171.057 95.2989 171.516L95.229 172.313C94.6223 178.761 92.85 186.869 87.8417 191.065C79.6274 197.947 69.4898 184.711 77.4715 177.836L77.7189 177.63C82.6801 173.621 83.7624 162.866 83.4952 156.943C83.3201 153.076 82.6158 149.16 81.395 145.478L81.144 144.745C80.7765 143.704 76.7699 133.837 75.3221 135.094L75.253 135.165C74.6559 135.877 73.6911 135.047 74.1496 134.293Z" transform="translate(52.00031 61.9997)" fill="#000000" fill-rule="evenodd" stroke="none"></path></g></g><g transform="translate(123 338)"></g><g transform="translate(47 241)"><g><path d="M316.813 3.10942C324.946 1.29242 394.509 -7.19658 396.465 14.9734C398.027 18.5324 397.593 37.5744 390.851 31.9324C373.772 44.8104 378.699 69.5144 366.274 85.8844C349.797 109.469 295.046 106.723 288.055 38.6864C281.114 35.9151 274.999 37.0109 268.751 38.1307C265.935 38.6352 263.093 39.1447 260.135 39.3074C269.752 111.531 152.497 141.921 143.304 53.8704C141.966 42.4674 138.517 43.4774 128.359 40.2094C126.53 39.8254 124.439 39.4604 122.435 38.8834C119.102 39.9934 117.307 38.4075 114.671 36.0782C106.929 29.2369 91.9299 15.9829 9.37509 45.7834C9.28609 50.3874 6.06709 52.6614 2.84509 50.4264C-18.3829 21.4114 85.4011 13.5744 108.135 14.3954C112.562 13.1234 116.74 12.4004 120.176 13.7484C138.328 -0.852581 224.917 -9.07258 250.63 19.5904C267.763 24.9805 282.206 18.1835 296.811 11.31C303.36 8.22787 309.942 5.13039 316.813 3.10942ZM368.291 12.4564C368.281 12.4694 368.269 12.4804 368.259 12.4934C368.182 12.4464 368.106 12.3984 368.027 12.3524C368.114 12.3884 368.206 12.4194 368.291 12.4564ZM351.985 88.3954C336.977 95.6234 316.039 84.9624 305.948 73.7954C302.275 69.7294 299.441 58.0964 300.854 50.7184C304.681 30.7374 319.061 18.7454 334.242 14.6504C355.286 8.97242 376.464 23.3564 373.995 40.3304C371.654 56.4174 368.107 79.7524 351.985 88.3954ZM210.244 96.4944C231.144 90.8474 248.631 71.7884 249.834 50.0134C250.295 40.7774 247.593 31.6544 240.983 25.3334C218.401 18.1694 173.188 13.7214 154.605 39.8164C149.88 46.4504 151.641 54.1844 152.39 56.7184C159.928 82.2194 176.57 105.89 210.244 96.4944Z" transform="translate(1.000312 17.99998)" fill="#000000" fill-rule="evenodd" stroke="none"></path></g></g></g></g></svg>