<?xml version="1.0" encoding="UTF-8" standalone="no"?>
<svg
   viewBox="-350 -150 796.00769 1115.2994"
   version="1.1"
   id="svg1011"
   sodipodi:docname="peep-no-bg.svg"
   inkscape:version="1.1.1 (3bf5ae0d25, 2021-09-20)"
   width="796.00769"
   height="1115.2993"
   xmlns:inkscape="http://www.inkscape.org/namespaces/inkscape"
   xmlns:sodipodi="http://sodipodi.sourceforge.net/DTD/sodipodi-0.dtd"
   xmlns="http://www.w3.org/2000/svg"
   xmlns:svg="http://www.w3.org/2000/svg">
  <defs
     id="defs1015" />
  <sodipodi:namedview
     id="namedview1013"
     pagecolor="#ffffff"
     bordercolor="#666666"
     borderopacity="1.0"
     inkscape:pageshadow="2"
     inkscape:pageopacity="0.0"
     inkscape:pagecheckerboard="0"
     showgrid="false"
     width="1120px"
     inkscape:zoom="0.49945337"
     inkscape:cx="492.53848"
     inkscape:cy="684.74861"
     inkscape:window-width="1568"
     inkscape:window-height="1011"
     inkscape:window-x="352"
     inkscape:window-y="32"
     inkscape:window-maximized="0"
     inkscape:current-layer="svg1011" />
  <g
     transform="matrix(0.99918633,0.01745241,-0.01744086,0.9998477,-342.6582,-223.6074)"
     id="g1009">
    <g
       transform="translate(0,459)"
       id="g983">
      <path
         d="m 21.7014,752.639 c 5.273,8.011 15.645,6.779 20.098,0.574 50.706,11.814 102.6886,7.158 154.0996,4.262 144.873,-5.895 290.563,12.583 434.85,-6.747 15.306,-3.061 33.121,-1.598 45.645,-12.214 20.031,-23.473 15.717,-59.112 12.526,-87.702 -25.577,-161.164 -61.94,-323.806 -80.079,-486.006 -1.013,-15.45 5.354,-34.647 11.062,-49.171 1.41,-2.702 10.321,-5.35 14.945,-8.467 14.191,-10.1858 11.89,-28.4398 -0.412,-39.1508 -39.831,-28.076 -95.279,-18.2653 -137.531,-7.9068 -8.098,-30.4128 -17.2,-50.41531 -32.617,-52.39618 -29.345,-3.7703 -100.528,-15.29173 -122.454,0 -10.49,7.31548 -17.223,33.09268 -24.774,45.64998 -55.067,-0.978 -166.83,-74.652 -189.807,8.311 -18.668,1.289 -37.1576,17.587 -33.5866,37.145 -24.211,21.3938 -5.115,53.4728 -5.45,80.1018 -3.183,56.499 -33.755,107.027 -46.474,161.605 -29.073,105.855 -61.979,298.404 -25.92,401.729 -0.776,-0.405 -2.471,0.205 -1.373,1.064 4.083,1.152 4.614,6.295 7.252,9.319 z"
         transform="translate(63.99979,-41.44802)"
         fill="#ffffff"
         stroke="none"
         id="path979" />
      <path
         d="m 794.424,692.582 c -0.019,0.07 -0.049,0.15 -0.08,0.22 0.82,1.26 1.441,2.66 1.851,4.08 2.259,7.78 -2.85,26.59 -9.401,30.42 -5.76,3.369 -12.469,3.81 -18.959,4.31 -7.29,0.57 -14.59,1.12 -21.89,1.68 -52.411,4.02 -104.81,8.6 -157.25,12.02 -1.064,0.069 -2.129,0.143 -3.196,0.216 -11.035,0.763 -22.221,1.535 -32.634,-2.905 -8.99,-3.841 -16.04,-10.821 -20.271,-19.622 -4.339,-9.019 -6.37,-29.689 -7.079,-39.639 -0.221,-3.06 -0.421,-6.17 -0.51,-9.27 -1.741,-0.49 -3.25,-1.841 -3.93,-4.19 -6.14,-21.27 -7.75,-44.57 -8.8,-66.62 -1.03,-21.68 -1.861,-43.32 -2.031,-65.031 -0.61,-78.359 3.79,-156.689 10.971,-234.699 3.6,-39.131 7.729,-78.21 12.63,-117.21 0.11,-0.91 0.23,-1.81 0.35,-2.719 -17.56,8.128 -36.57,12.599 -56.01,12.479 -15.511,-0.101 -32.771,-2.75 -46.96,-10.12 -1.39,5.99 -2.73,11.99 -4.06,17.99 -18.25,82.35 -29.401,166 -34.19,250.19 -2.39,42.14 -3.091,84.38 -2.131,126.58 0.47,21.1 1.661,42.19 3.2,63.24 0.761,10.51 1.63,21.03 2.21,31.55 0.327,5.772 0.184,11.551 0.04,17.326 -0.027,1.118 -0.055,2.236 -0.08,3.354 0.871,0.76 1.651,1.65 2.31,2.65 6.38,9.67 9.2,21.559 7.7,33.059 -0.82,6.25 -4.58,11.032 -11.27,11.271 -31.889,1.16 -63.78,2.32 -95.67,3.479 -39.206,1.431 -78.408,3.118 -117.608,4.793 -2.664,-82.306 -8.514,-164.491 -10.375,-246.829 -0.575,-25.408 -0.743,-50.825 -0.24,-76.236 0.101,-5.149 -7.899,-5.149 -8.001,0 -0.167,8.432 -0.241,16.862 -0.276,25.293 -5.992,-4.699 -12.655,-8.425 -19.049,-12.618 -4.318,-2.832 -8.329,4.092 -4.038,6.907 7.584,4.974 15.656,9.148 22.231,15.503 0.267,0.258 0.544,0.455 0.827,0.621 0.147,80.99 5.692,161.922 9.213,242.806 0.651,14.962 1.227,29.926 1.71,44.895 -14.605,0.623 -29.209,1.243 -43.813,1.846 -13.951,0.58 -27.911,1.03 -41.8605,1.53 l -1.4732,0.053 c -12.3853,0.448 -24.9614,0.902 -37.1768,-1.493 -11.27,-2.22 -21.11,-8.33 -27.5,-17.91 -3.01,-4.52 -5.03,-9.74 -5.59,-15.09 -2.49,0.61 -5.6,-0.539 -6.62001,-3.39 -4.02,-11.17 -8.38,-21.44 -9.320002,-33.45 -0.93,-11.79 0.27,-23.481 1.940002,-35.14 3.3,-22.91 10.18001,-45.03 16.43001,-67.25 5.54,-19.73 11.66,-39.32 16.25,-59.309 4.79,-20.901 7.16,-41.821 7.58,-63.261 0.1862,-9.66 0.1361,-19.32 0.0861,-28.979 -0.0655,-12.649 -0.1311,-25.296 0.3339,-37.941 0.71,-19.56 2.57,-39.04 5.35,-58.42 5.52,-38.46 15.93,-76.39 32.44,-111.63 8.03,-17.16 17.21,-34.19 27.9495,-49.83 5.3,-7.721 11.31,-15.29 17.6,-22.24 2.81,-3.1 5.68,-6.199 8.67,-9.12 -12.07,-3.82 -20.7,-13.81 -18.23,-28.09 1.26,-7.239 5.5,-13.8596 11.2,-18.4196 0.24,-0.2 0.49,-0.39 0.74,-0.569 -5.98,-9.811 -2.48,-21.541 4.2,-29.971 8.13,-10.26 20.29,-17.62 33.14,-19.92 -0.1,-0.29 -0.2,-0.59 -0.3,-0.88 -2.869,-8.82 0.36,-17.86 7.5,-23.54 11.63,-9.26 27.64,-14.01901 42.03,-16.81001 15.801,-3.060002 31.92,-3.340002 47.85,-1.161 7.42,1.021 14.69,2.711 21.811,5.011 7.429,2.39 15.11,4.81901 21.88,8.72001 10.319,5.93 25.959,15.2 21.929,29.56 -0.51,1.8 -2.86,1.241 -3.039,-0.41 -0.821,-7.48 -13.681,-11.01 -19.591,-13.679 -6.579,-2.981 -13.73,-5.931 -20.69,-7.872 -14.19,-3.969 -29.09,-5.589 -43.799,-4.949 -14.621,0.64 -29.271,3.76 -42.83,9.26 -3.75,1.52 -13.661,4.09 -15.341,8.561 -1.36,3.599 3.63,7.589 7.04,9.959 0.691,0.49 1.32,0.91 1.82,1.24 8.191,5.5 3.201,20.26 -7.05,16.71 -0.74,-0.26 -1.49,-0.47 -2.24,-0.64 -9.949,-2.31 -21.089,2.21 -28.8,8.32 -3.1,2.45 -7.63,6.34 -8.11,10.62 -0.157,1.4276 -0.143,1.4276 0.011,1.4273 0.128,-2e-4 0.354,-5e-4 0.659,0.8327 0.07,0.2 0.151,0.34 0.22,0.44 0.66,-0.26 1.321,-0.52 1.99,-0.79 4.67,-1.88 9.95,1.66 11.76,5.77 1.99,4.55 0.14,9.89 -4.08,12.4496 -1.81,1.1 -3.69,1.83 -5.6,2.241 -5.07,2.079 -10.91,5.17 -13.05,9.869 -2.07,4.54 -0.19,6.47 4.06,7.349 6.202,1.29 13.423,-0.072 19.691,-1.254 0.15,-0.028 0.3,-0.056 0.449,-0.085 8.101,-1.53 16.08,-3.65 23.98,-6 3.923,-1.162 7.861,-2.377 11.812,-3.595 27.585,-8.508 55.847,-17.2246 84.598,-10.034 -0.359,-0.8706 -0.709,-1.7496 -1.06,-2.6306 -0.75,-1.88 2.09,-2.78 3.08,-1.3 1.52,2.27 3.01,4.5596 4.48,6.8796 0.97,0.95 1.651,2.08 2.071,3.29 8.07,13.011 15.419,26.62 22.109,40.53 5.6,9.949 10.63,20.21 15.04,30.74 5.771,13.82 10.28,27.97 14.301,42.34 3.539,10.55 6.829,21.18 9.879,31.88 3.07,7.66 6.57,14.85 7.9,23.11 0.22,1.35 -0.089,2.74 -0.75,3.9 7.38,30.05 12.901,60.559 16.68,91.27 1.131,9.25 2.131,18.51 2.95,27.8 2.771,-30.58 6.46,-61.08 11.021,-91.46 6.36,-42.37 14.489,-84.48 24.349,-126.17 4.611,-19.45 9.32,-38.94 15.731,-57.881 4.989,-14.75 10.719,-29.7286 19.03,-43.0086 -6.17,-0.5 -12.371,-0.88 -18.501,-1.63 -9.4,-1.14 -18.769,-2.489 -28.099,-4.1 -9.741,-1.69 -19.401,-3.85 -29.001,-6.22 -9.33,-2.291 -18.319,-5.75 -27.419,-8.81 -1.4,-0.47 -0.821,-2.4 0.6,-2.17 19.18,3.189 38.789,5.22 58.139,7.18 0.715,0.0719 1.431,0.1441 2.148,0.2165 16.356,1.651 33.486,3.38 49.982,2.5935 1.771,-0.08 3.53,-0.19 5.291,-0.33 5.949,-0.48 8.649,6.51 6.36,11.08 -4.97,9.88 -10.311,19.61 -14.601,29.7996 -4.25,10.09 -7.689,20.53 -10.78,31.021 -3.75,12.759 -7.069,25.649 -10.16,38.599 5.87,1.18 11.731,2.42 17.681,3.1 9.049,1.051 18.059,1.349 27.16,0.82 18.069,-1.06 36.029,-5.81 52.01,-14.34 2.26,-1.21 4.47,-1.33 6.399,-0.73 1.721,-12.21 3.62,-24.38 5.721,-36.51 v -0.26 c 0.569,-14.21 2.58,-28.31 3.3,-42.5096 0.58,-11.39 0.28,-23.06 1.41,-34.46 -0.041,-0.19 -0.02,-0.39 0.059,-0.57 0.2,-1.96 0.441,-3.91 0.741,-5.85 0.089,-0.61 0.909,-0.459 1.08,0 0.849,2.19 1.569,4.44 2.189,6.74 19.51,7.62 38.731,16.03 58.611,22.69 10.499,3.52 21.129,6.65 31.63,10.159 5.44,1.811 10.799,3.761 16.17,5.771 1.089,0.41 2.169,0.78 3.229,1.149 0.641,-0.529 1.391,-1 2.261,-1.399 4.479,-2.069 12.169,-3.42 14.769,-8.22 0.043,-0.0838 0.045,-0.3803 0.048,-0.624 0.002,-0.2772 0.004,-0.4861 0.063,-0.236 -0.081,-0.43 -0.141,-0.72 -0.17,-0.9 0.04,0.2 0.089,0.45 0.12,0.51 0,-0.051 -0.041,-0.34 -0.16,-1.07 0,-0.01 -0.011,0 -0.011,0 0.02,0.34 -0.179,0.13 -0.31,-0.12 -0.219,-0.09 -0.469,-0.159 -0.74,-0.22 -4.899,-1.04 -7.649,-6.26 -7.099,-10.87 0.62,-5.22 4.839,-8.08 9.729,-8.59 2.21,-0.229 5.59,-0.36 7.31,-1.91 1.959,-1.7667 0.25,-2.5542 -1.531,-3.3753 -0.356,-0.1642 -0.715,-0.3297 -1.049,-0.5047 -7.11,-3.71 -14.909,-6.11 -22.73,-7.75 -8,-1.68 -16.139,-2.35 -24.299,-1.971 -7.791,0.371 -15.47,3.202 -23.18,3.231 -0.541,0 -0.911,-0.74 -0.461,-1.12 3.81,-3.26 8.98,-4.65 13.731,-6 5.47,-1.56 11.069,-2.6 16.73,-3.22 11.21,-1.24 22.579,-0.51 33.539,2.12 9.641,2.319 23.49,5.37 24.611,17.23 0.6,6.3 -1.921,11 -5.84,14.62 1.919,4.29 2.659,9.21 2.019,13.65 -1.48,10.28 -10.129,18.0096 -19.639,22.1096 -0.03,0.25 -0.08,0.5 -0.121,0.74 -1.669,8.94 -4.439,17.9 -7.15,26.58 -1.549,4.99 -3.14,9.96 -4.77,14.92 22.341,24.82 38.781,54.85 50.291,86.091 27.69,75.149 24.339,156.269 38.45,234.179 7.189,39.69 20.43,77.79 29.8,116.949 4.729,19.771 8.689,39.711 10.529,59.981 0.871,9.63 1.221,19.31 0.891,28.971 -0.191,5.429 -0.23,11.449 -1.941,16.629 z m -207.74,-348.7 c -18.09,72.491 -30.23,146.28 -36.18,220.76 -1.21,15.12 -2.06,30.22 -2.54,45.33 -0.48,3.94 -0.94,7.89 -1.37,11.84 -1.63,14.939 -2.88,30.12 -2.77,45.16 0.05,6.75 0.26,13.47 0.72,20.199 -0.8,-2.25 -1.54,-4.509 -2.26,-6.759 -1.47,-4.61 -2.44,-9.39 -3.94,-13.97 -1.24,-3.79 -2.84,-7.42 -4.33,-11.09 v -0.01 c 0.337,-11.254 -0.15,-22.586 -0.634,-33.853 -0.163,-3.779 -0.325,-7.549 -0.456,-11.307 -0.67,-19.38 -1.5,-38.74 -1.93,-58.13 -0.86,-38.78 -0.43,-77.59 0.97,-116.349 2.81,-78.101 9.91,-155.83 17.07,-233.611 1.99,-21.63 4.13,-43.25 5.61,-64.921 1.49,-21.899 2.09,-43.8386 2.26,-65.7976 0.01,-1.581 -2.39,-2 -2.83,-0.471 -0.39,-5.21 -1.079,-10.41 -2.23,-15.44 17.25,11 35.44,20.51 53.271,30.51 9.39,5.27 18.739,10.63 28.419,15.3496 5.32,2.599 10.69,4.99 16.17,7.25 0.907,0.374 1.808,0.77 2.706,1.165 4.729,2.08 9.402,4.135 14.654,2.764 0.54,-0.139 1.051,-0.339 1.54,-0.599 -0.71,1.349 -1.419,2.69 -2.099,4.051 -2.36,4.689 -4.611,9.399 -6.791,14.149 -0.579,0.43 -1.089,1.021 -1.49,1.79 -1.06,2.07 -2.089,4.16 -3.09,6.279 -0.199,-0.189 -0.4,-0.379 -0.6,-0.569 -0.839,-0.79 -2,0.399 -1.26,1.26 0.341,0.389 0.671,0.77 1,1.16 -6.519,14.03 -11.82,28.78 -17.279,43.181 -6.711,17.699 -13.071,35.529 -19.061,53.479 -11.809,35.31 -22.23,71.08 -31.25,107.2 z m 70.019,30.744 c -10.45,6.391 -24.172,1.958 -34.515,-2.274 -4.709,-1.927 -2.635,-9.663 2.127,-7.714 l 0.101,0.042 c 7.868,3.22 19.309,7.902 27.581,3.429 8.29,-4.484 8.664,-16.818 8.727,-24.957 0.039,-5.154 8.037,-5.15 8,0 -0.084,11.073 -1.565,25.078 -12.021,31.474 z m -441.259,23.213 c -1.733,-0.129 -3.417,-1.134 -3.857,-2.936 -2.701,-11.058 -4.816,-23.104 -2.304,-34.383 1.12,-5.031 8.831,-2.89 7.714,2.126 -1.981,8.894 -0.407,18.508 1.65,27.377 22.9,1.003 45.558,-5.256 67.741,-11.383 5.986,-1.653 11.937,-3.297 17.848,-4.786 5.004,-1.26 7.116,6.458 2.127,7.714 -5.953,1.5 -11.948,3.149 -17.979,4.809 -23.863,6.566 -48.288,13.287 -72.94,11.462 z m 479.84,138.848 c 0.054,54.747 4.757,120.29 11.52,174.584 0.628,5.041 8.636,5.104 8,0 -6.763,-54.294 -11.466,-119.837 -11.52,-174.584 -0.005,-5.147 -8.005,-5.156 -8,0 z m -84.703,64.227 c 7.24,9.378 16.237,16.766 26.779,22.17 4.573,2.345 8.627,-4.555 4.038,-6.907 -9.234,-4.734 -17.536,-11.047 -23.908,-19.301 -3.102,-4.018 -10.055,-0.039 -6.909,4.038 z m -376.99,68.251 c 29.966,-23.015 61.123,-44.353 94.464,-62.208 4.54,-2.432 0.505,-9.34 -4.038,-6.909 -33.341,17.856 -64.497,39.195 -94.464,62.209 -4.027,3.092 -0.046,10.045 4.038,6.908 z"
         transform="translate(11.99981,-26.99999)"
         fill="#000000"
         fill-rule="evenodd"
         stroke="none"
         id="path981" />
    </g>
    <g
       transform="translate(225)"
       id="g1007">
      <g
         id="g991">
        <g
           id="g989">
          <path
             d="m 340.529,155.003 c -2.153,-18.915 0.633,-58.4513 0.819,-60.8533 C 342.529,78.9648 335.414,19.0018 321.964,24.5268 299.401,6.66576 269.351,2.72176 241.251,0.837757 182.883,-3.07624 120.791,5.90876 75.7204,45.1888 53.4316,65.5878 31.7323,95.2567 33.4765,126.149 13.2256,155.431 -15.3236,195.598 9.90814,229.831 c 8.57676,10.937 22.20796,15.01 32.98236,23.293 21.6717,17.48 35.2681,42.566 57.1455,59.942 57.96,52.083 156.377,62.963 213.323,3.723 44.035,-42.904 36.915,-107.09 29.17,-161.786 -5.208,-36.773 2.199,36.901 -2,0 z"
             transform="translate(65.0005,149)"
             fill="#ffffff"
             stroke="none"
             id="path985" />
          <path
             d="m 227.86,0.104592 c -15.941,-0.59 -31.97,1.369998 -47.58,4.519998 -30.981,6.24001 -62.71,16.45001 -90.771,31.09001 -11.782,6.15 -22.6521,13.745 -32.455,22.494 -8.861,-4.237 -22.841,-4.581 -25.681,5.135 -0.815,2.789 -0.409,5.317 0.761,7.479 -0.341,0.194 -0.678,0.402 -1.008,0.623 -2.2352,1.4968 -3.4285,2.5859 -4.8123,3.9606 l -1.0927,1.0954 c -3.46,3.471 -3.787,9.894 0,13.321 l 0.518,0.468 0.3186,0.278 c 0.6453,0.5419 1.3378,1.0003 2.0604,1.38 C 14.847,112.287 5.83895,135.465 2.10995,159.685 c -2.1909989,14.22 -2.829999,28.44 -1.179999,42.75 0.799999,6.99 1.999999,14.45 4.448999,21.06 1.191,3.23 2.87,6.37 4.38,9.47 1.64105,3.38 4.33005,5.85 6.54005,8.87 0.24,0.31 0.62,0.47 0.99,0.48 -0.669,1.38 -1.28,2.78 -1.849,4.17 -3.271,7.99 -5.79005,16.6 -7.25005,25.11 -2.75,16.05 -1.07,34.1 11.14905,46.11 4.87,4.78 12.41,8.61 19.821,9.63 -2.371,2.44 -4.281,5.34 -5.81,8.68 -2.86,6.23 1.909,14.66 9.489,12.34 1.441,-0.44 2.87,-1 4.271,-1.62 2.179,4.33 6.84,7.26 11.84,6.51 2.91,-0.44 5.009,-1.57 6.45,-3.16 3.609,7.98 8.399,15.23 14.4699,21.63 6.419,6.78 13.5091,12.89 19.91,19.69 6.2191,6.6 9.9101,15.22 17.2401,20.66 2.279,1.69 5.77,-0.11 6.41,-2.61 2.485,-9.729 -4.208,-17.829 -10.558,-24.52 l -0.802,-0.84 c -6.811,-7.08 -14.68,-12.99 -21.93,-19.59 -7.53,-6.86 -13.591,-14.14 -19.051,-22.74 -0.4716,-0.74 -0.9418,-1.495 -1.4137,-2.258 L 67.53,336.025 c -0.111,-0.51 -0.231,-1.01 -0.37,-1.5 -0.111,-1.97 -0.77,-3.84 -2.0401,-5.56 -1.5709,-2.13 -3.6699,-3.74 -6.0099,-4.49 -0.79,-0.84 -1.611,-1.64 -2.47,-2.38 1.069,-1.17 2.01,-2.55 2.81,-4.15 1.48,-2.98 -0.25,-7.72 -4.21,-7.33 -1.1896,0.114 -2.3582,0.06 -3.5258,0.006 -1.2773,-0.059 -2.5534,-0.118 -3.8542,0.044 -0.3116,0.039 -0.623,0.08 -0.9344,0.121 -2.1368,0.283 -4.2699,0.565 -6.4266,0.269 -4.429,-0.63 -8.399,-3.03 -11.279,-6.39 -7.211,-8.4 -7.971,-20.48 -6.461,-30.96 0.6673,-4.679 1.8079,-9.277 3.0198,-13.85 l 1.8737,-7.004 c 1.0679,-3.914 2.3545,-7.97 4.8675,-11.156 7.8861,-10.001 21.3978,-2.153 29.4854,3.867 l 0.7346,0.553 c 0.07,0.05 0.13,0.07 0.2,0.07 0.43,0.7 0.89,1.39 1.37,2.05 2.649,3.58 5.859,6.76 9.1699,9.76 l 0.6754,0.616 c 0.4531,0.409 0.9107,0.814 1.3647,1.214 3.87,3.41 9.109,0.9 9.62,-3.98 0.949,-9.2 0.69,-18.5 1.279,-27.74 0.5899,-9.25 1.651,-18.47 3.2309,-27.6 1.58,-9.12 3.6201,-18.15 6.1091,-27.05 1.25,-4.46 2.62,-8.87 4.08,-13.26 1.111,-3.38 1.941,-8.86 4.87,-11.21 2.651,-2.14 7.641,-2.5 10.891,-3.19 4.54,-0.97 9.109,-1.83 13.659,-2.8 8.511,-1.83 17.011,-3.82 25.391,-6.18 8.3,-2.34 16.53,-5.1 24.5,-8.42 -2.29,3.84 -4.561,7.69 -6.811,11.55 -3.08,5.29 0.96,10.94 6.551,11.41 5.739,0.48 11.55,0.05 17.149,-1.31 1.191,-0.29 2.281,-0.62 3.291,-1.01 6.149,-0.441 12.425,-1.844 18.203,-3.268 l 2.697,-0.672 c 10.979,-2.76 21.529,-6.53 31.93,-10.98 1.165,-0.498 2.331,-1.006 3.497,-1.523 4.314,-1.302 8.563,-2.815 12.729,-4.536 15.445,2.337 31.199,1.431 46.373,-2.301 6.551,-1.61 13.671,-3.63 20.441,-6.43 3.37,5.75 8.54,10.41 14.309,13.79 0.631,4.99 0.981,10.03 1.211,15.03 0.739,15.94 1.579,31.88 2.449,47.81 l 0.28,5.158 c 1.645,30.957 2.653,61.963 2.89,92.952 0.221,28.24 -1.509,56.12 -16.809,80.68 -12.89,20.72 -33,37.21 -56.35,44.61 -14.341,4.54 -29.54,6 -44.511,4.55 -7.309,-0.71 -14.549,-2.38 -21.54,-4.62 l -1.005,-0.317 c -7.019,-2.166 -13.703,-3.236 -21.024,-4.123 -4.841,-0.59 -6.011,5.69 -3.58,8.64 5.14,6.22 10.63,10.37 18.269,13.19 6.901,2.54 14.22,4.15 21.491,5.2 15,2.16 30.13,1.92 44.95,-1.47 27.5,-6.28 51.809,-22.8 68.74,-45.21 18.59,-24.61 24.579,-54.03 24.97,-84.34 0.421,-32.434 -1.188,-65.024 -3.33,-97.404 l -0.45,-6.696 c -0.96,-14.01 -1.98,-28.07 -3.571,-42.05 2.631,0.26 5.391,-0.56 7.631,-2.81 4.364,-4.364 5.397,-11.081 5.916,-17.147 l 0.134,-1.673 c 0.42,-5.59 -0.431,-11.31 -1.96,-16.68 -2.108,-7.354 -5.642,-13.546 -10.634,-18.731 6.686,-7.206 10.287,-17.4044 11.081,-27.0324 0.573,-6.938 1.106,-16.057 -6.55,-19.29 -1.512,-0.639 -3.077,-0.875 -4.651,-0.842 0.404,-2.471 0.677,-4.972 0.83,-7.503 0.245,-4.024 -3.884,-8.435 -8.017,-8.019 -1.256,0.127 -2.512,0.262 -3.768,0.393 0.751,-1.201 1.505,-2.399 2.279,-3.585 3.254,-4.977 -1.144,-10.526 -6.283,-10.951 -13.659,-1.129 -27.179,-3.93 -40.211,-8.173 -13.092,-4.264 -26.768,-8.555 -39.202,-14.49001 -0.878,-0.419 -1.846,-0.109 -2.448,0.495 C 256.273,1.69209 241.083,0.631691 229.089,0.152327 Z M 50.9901,264.032 c -4.6431,-2.159 -10.9316,-5.083 -15.7598,-3.507 -2.2101,0.72 -2.861,3.06 -1.861,4.78 h -0.0801 l 0.2073,0.331 c 0.9184,1.398 2.0968,2.346 3.3889,3.246 l 0.6039,0.413 c -1.62,1.15 -2.8601,2.81 -3.4001,4.93 -0.869,3.37 0.54,7.51 3.7401,9.2 1.281,0.67 2.6699,1.04 4.1199,1.11 2.0455,0.09 3.7521,-0.852 5.3002,-2.03 l 0.4599,-0.36 c 0.681,-0.54 1.231,-1.26 1.6699,-2.04 3.7311,4.82 6.8701,10.51 13.46,10.69 3.1501,0.09 6.7101,-2.42 7.36,-5.61 0.071,-0.31 0.1301,-0.62 0.1911,-0.92 0.609,-2.99 0.1699,-6.49 -2.2801,-8.63 -4.9199,-4.28 -9.9999,-8.33 -15.9699,-11.07 -0.3702,-0.17 -0.7542,-0.349 -1.1502,-0.533 z"
             transform="translate(48.00005,65.00051)"
             fill="#000000"
             fill-rule="evenodd"
             stroke="none"
             id="path987" />
        </g>
      </g>
      <g
         transform="translate(159,186)"
         id="g997">
        <g
           id="g995">
          <path
             d="m 158.318,0.693899 c -5.694,-0.988 -11.912,-1.02 -17.517,0.553001 -4.409,1.236 -11.34,4.047 -13.245,8.55 -0.384,0.909 -0.378,2.31 0.73,2.782 1.496,0.495 4.106,0.755 3.834,0.197 1.284,-0.1372 2.579,-0.3878 3.882,-0.6397 2.048,-0.3962 4.113,-0.7955 6.17,-0.7613 4.37,0.073 8.449,0.838 12.521,2.471 3.666,1.47 7.102,3.568 10.027,6.229 3.545,3.224 5.515,8.066 9.702,10.483 5.136,2.964 11.085,-0.861 11.356,-6.516 0.325,-6.7721 -5.729,-12.3343 -10.802,-16.15709 l -0.54,-0.40291 c -4.647,-3.441 -10.426,-5.8 -16.118,-6.788001 z M 11.2575,13.4754 c 9.069,-8.028 25.548,-15.781 37.777,-11.83 7.031,2.271 10.096,13.6 2.247,17.191 -9.089,4.158 -19.568,2.466 -28.819,6.776 -3.885,1.811 -7.539,4.074 -10.244,7.393 -2.131,2.616 -4.29901,6.058 -7.38101,7.566 -0.81,0.397 -1.907,0.407 -2.556,-0.329 -6.756,-7.642 3.077,-21.546 8.97601,-26.767 z M 183.351,63.4506 c 3.722,-14.922 -12.825,-29.578 -26.962,-28.413 -7.164,0.591 -13.547,4.715 -17.467,10.665 -2.739,4.158 -5.332,12.45 -1.012,16.433 0.61,0.562 1.437,0.528 2.055,0 2.51,-2.149 3.959,-5.702 6.382,-8.13 2.683,-2.689 6.214,-4.602 10.042,-4.86 3.473,-0.234 6.704,1.29 8.978,3.914 2.755,3.178 2.651,6.564 3.69,10.391 1.888,6.955 12.509,7.16 14.294,0 z M 38.1784,39.9406 c 7.38,-1.309 14.94,0.526 21.047,4.844 l 0.4628,0.3329 c 5.8835,4.3028 12.4663,11.8583 9.0902,19.2751 -1.355,2.978 -5.413,3.445 -7.988,2.095 -4.287,-2.248 -5.064,-7.779 -8.889,-10.84 -3.137,-2.509 -7.361,-4.031 -11.401,-3.664 -9.491,0.862 -15.329,10.223 -18.277,18.29 -0.377,1.032 -1.892,1.433 -2.484,0.325 -6.951,-12.992 5.353,-28.336 18.439,-30.658 z M 129.748,109.04 c 8.123,-11.3794 -3.383,-22.0825 -10.934,-26.6725 -1.978,-1.42 -0.408,-6.1238 3.819,-5.3968 38.397,6.597 18.502,72.7373 -30.5213,36.4423 -5.8366,-4.708 1.2314,-15.0788 7.5222,-11.047 0.319,0.245 0.6531,0.504 1.0021,0.773 7.068,5.465 19.999,15.463 29.112,5.901 z m -55.5984,25.253 c 5.5941,-9.202 17.5179,13.339 18.7848,17.215 1.1221,3.434 1.8628,6.951 2.2392,10.509 4.337,0.972 8.8404,0.974 13.2844,0.122 6.605,-1.267 10.642,-4.817 16.382,-7.866 3.965,-2.107 8.962,0.363 11.024,3.857 2.425,4.113 0.88,8.381 -2.31,11.447 -6.049,5.814 -17.951,7.15 -25.847,5.606 -4.524,-0.884 -8.6699,-2.581 -12.3314,-5.047 -0.0242,0.461 -0.0404,0.921 -0.0767,1.38 l -0.0699,0.797 c -0.6067,6.448 -2.379,14.556 -7.3873,18.752 -8.2143,6.882 -18.3519,-6.354 -10.3702,-13.229 l 0.2474,-0.206 c 4.9612,-4.009 6.0435,-14.764 5.7763,-20.687 -0.1751,-3.867 -0.8794,-7.783 -2.1002,-11.465 l -0.251,-0.733 c -0.3675,-1.041 -4.3741,-10.908 -5.8219,-9.651 l -0.0691,0.071 c -0.5971,0.712 -1.5619,-0.118 -1.1034,-0.872 z"
             transform="translate(52.00031,61.9997)"
             fill="#000000"
             fill-rule="evenodd"
             stroke="none"
             id="path993" />
        </g>
      </g>
      <g
         transform="translate(123,338)"
         id="g999" />
      <g
         transform="translate(47,241)"
         id="g1005">
        <g
           id="g1003">
          <path
             d="m 316.813,3.10942 c 8.133,-1.817 77.696,-10.306 79.652,11.86398 1.562,3.559 1.128,22.601 -5.614,16.959 -17.079,12.878 -12.152,37.582 -24.577,53.952 -16.477,23.5846 -71.228,20.8386 -78.219,-47.198 -6.941,-2.7713 -13.056,-1.6755 -19.304,-0.5557 -2.816,0.5045 -5.658,1.014 -8.616,1.1767 9.617,72.2236 -107.638,102.6136 -116.831,14.563 -1.338,-11.403 -4.787,-10.393 -14.945,-13.661 -1.829,-0.384 -3.92,-0.749 -5.924,-1.326 -3.333,1.11 -5.128,-0.4759 -7.764,-2.8052 -7.742,-6.8413 -22.7411,-20.0953 -105.29591,9.7052 -0.089,4.604 -3.308,6.878 -6.53,4.643 -21.22799,-29.015 82.55601,-36.852 105.28991,-36.031 4.427,-1.272 8.605,-1.995 12.041,-0.647 18.152,-14.600981 104.741,-22.82098 130.454,5.842 17.133,5.3901 31.576,-1.4069 46.181,-8.2804 6.549,-3.08213 13.131,-6.17961 20.002,-8.20058 z m 51.478,9.34698 c -0.01,0.013 -0.022,0.024 -0.032,0.037 -0.077,-0.047 -0.153,-0.095 -0.232,-0.141 0.087,0.036 0.179,0.067 0.264,0.104 z m -16.306,75.939 c -15.008,7.228 -35.946,-3.433 -46.037,-14.6 -3.673,-4.066 -6.507,-15.699 -5.094,-23.077 3.827,-19.981 18.207,-31.973 33.388,-36.068 21.044,-5.67798 42.222,8.706 39.753,25.68 -2.341,16.087 -5.888,39.422 -22.01,48.065 z m -141.741,8.099 c 20.9,-5.647 38.387,-24.706 39.59,-46.481 0.461,-9.236 -2.241,-18.359 -8.851,-24.68 -22.582,-7.164 -67.795,-11.612 -86.378,14.483 -4.725,6.634 -2.964,14.368 -2.215,16.902 7.538,25.501 24.18,49.1716 57.854,39.776 z"
             transform="translate(1.000312,17.99998)"
             fill="#000000"
             fill-rule="evenodd"
             stroke="none"
             id="path1001" />
        </g>
      </g>
    </g>
  </g>
</svg>
