<?xml version="1.0" encoding="windows-1252"?>
<!-- Generator: Adobe Illustrator 19.0.0, SVG Export Plug-In . SVG Version: 6.00 Build 0)  -->
<svg version="1.1" id="Layer_1" xmlns="http://www.w3.org/2000/svg" xmlns:xlink="http://www.w3.org/1999/xlink" x="0px" y="0px" viewBox="0 0 511.847 511.847" style="enable-background:new 0 0 511.847 511.847;" xml:space="preserve">
<path style="fill:#F5BA45;" d="M495.962,278.759c-8.013-8.56-24.04-17.229-35.583-19.268l-20.228-3.569l20.229-3.569  c11.543-2.03,27.57-10.708,35.583-19.268l7.294-7.778c3.999-4.28,5.499-9.256,4.702-13.824c-0.796-4.569-3.921-8.731-9.153-11.38  l-9.513-4.818c-10.466-5.303-28.46-7.975-40.019-5.936l-20.244,3.569l17.807-10.271c10.153-5.865,22.228-19.494,26.836-30.28  l4.186-9.802c2.312-5.396,2.031-10.59-0.297-14.604c-2.326-4.015-6.67-6.857-12.496-7.561l-10.574-1.28  c-11.652-1.398-29.491,2.249-39.645,8.114l-17.807,10.271l13.215-15.737c7.528-8.981,14.229-25.914,14.87-37.629l0.593-10.646  c0.312-5.857-1.732-10.638-5.279-13.621c-3.561-2.983-8.622-4.162-14.339-2.835l-10.372,2.421  c-11.434,2.672-26.945,12.2-34.489,21.189L348.04,96.384l7.014-19.307c4.03-11.021,4.53-29.226,1.124-40.448l-3.092-10.2  c-1.719-5.616-5.28-9.411-9.623-10.997c-4.373-1.585-9.527-0.969-14.433,2.241l-8.935,5.827  c-9.825,6.412-21.15,20.673-25.148,31.693L287.918,74.5V53.96c0-11.73-5.748-29.007-12.793-38.387l-6.404-8.536  C265.206,2.35,260.567,0,255.928,0c-4.64,0-9.279,2.351-12.793,7.037l-6.404,8.536c-7.037,9.38-12.793,26.656-12.793,38.387v20.541  l-7.021-19.307c-4.015-11.021-15.331-25.281-25.156-31.693l-8.927-5.827c-4.913-3.21-10.075-3.826-14.433-2.241  c-4.358,1.594-7.919,5.381-9.622,10.997l-3.093,10.2c-3.405,11.223-2.905,29.428,1.109,40.448l7.021,19.299l-13.202-15.729  c-7.544-8.989-23.055-18.518-34.481-21.182l-10.38-2.421c-5.717-1.335-10.778-0.148-14.332,2.827  c-3.553,2.983-5.6,7.764-5.279,13.621l0.585,10.646c0.641,11.715,7.334,28.647,14.871,37.637l13.199,15.729l-17.784-10.271  c-10.153-5.865-28-9.513-39.644-8.106L46.786,120.4c-5.826,0.703-10.176,3.546-12.496,7.561c-2.319,4.022-2.608,9.208-0.305,14.604  l4.194,9.802c4.608,10.786,16.682,24.415,26.843,30.28l17.784,10.263l-20.221-3.562c-11.551-2.039-29.561,0.633-40.027,5.936  l-9.513,4.818c-5.232,2.648-8.349,6.811-9.153,11.38c-0.804,4.568,0.695,9.544,4.709,13.824l7.287,7.786  c8.021,8.552,24.032,17.229,35.583,19.268l20.23,3.562l-20.229,3.569c-11.551,2.03-27.562,10.708-35.583,19.268l-7.287,7.778  c-4.014,4.281-5.514,9.248-4.709,13.824c0.805,4.577,3.921,8.732,9.153,11.388l9.513,4.812c10.458,5.311,28.476,7.966,40.027,5.936  l20.221-3.562l-17.784,10.264c-10.161,5.857-22.235,19.494-26.843,30.287l-4.194,9.794c-2.304,5.389-2.015,10.591,0.305,14.604  c2.32,4.015,6.67,6.857,12.496,7.561l10.583,1.281c11.645,1.405,29.483-2.25,39.644-8.123l17.784-10.262l-13.199,15.729  c-7.537,8.998-14.23,25.93-14.871,37.645l-0.585,10.639c-0.32,5.857,1.726,10.637,5.279,13.62c3.554,2.983,8.615,4.171,14.332,2.827  l10.38-2.405c11.426-2.687,26.937-12.216,34.481-21.196l13.199-15.73l-7.029,19.307c-4.007,11.013-4.507,29.211-1.102,40.441  l3.093,10.199c1.703,5.624,5.264,9.404,9.622,10.997c4.358,1.593,9.521,0.969,14.433-2.233l8.927-5.826  c9.817-6.42,21.142-20.682,25.156-31.709l7.021-19.291v20.54c0,11.731,5.756,28.991,12.793,38.395l6.404,8.528  c3.514,4.687,8.153,7.029,12.793,7.029c4.639,0,9.278-2.343,12.793-7.029l6.404-8.528c7.045-9.403,12.793-26.663,12.793-38.395  v-20.54l7.029,19.291c3.998,11.027,15.339,25.305,25.148,31.709l8.935,5.826c4.905,3.202,10.06,3.826,14.433,2.233  c4.343-1.593,7.904-5.373,9.623-10.997l3.092-10.199c3.406-11.23,2.906-29.429-1.124-40.441l-7.014-19.307l13.199,15.73  c7.544,8.98,23.056,18.525,34.489,21.196l10.372,2.405c5.717,1.344,10.778,0.156,14.339-2.827c3.547-2.983,5.592-7.763,5.279-13.62  l-0.593-10.639c-0.641-11.715-7.342-28.646-14.87-37.645l-13.215-15.729l17.807,10.262c10.153,5.873,27.992,9.528,39.645,8.123  l10.574-1.281c5.826-0.688,10.17-3.53,12.496-7.561c2.328-4.014,2.609-9.216,0.297-14.589l-4.186-9.81  c-4.593-10.793-16.683-24.414-26.836-30.271l-17.807-10.279l20.244,3.562c11.559,2.03,29.553-0.625,40.019-5.936l9.513-4.812  c5.232-2.655,8.357-6.811,9.153-11.388c0.797-4.576-0.703-9.543-4.702-13.824L495.962,278.759z M266.586,372.543h-21.321  c-3.764,0-7.302,1-10.379,2.718c-2.304-2.687-5.288-4.812-8.826-6.107l-20.041-7.295c-3.538-1.28-7.201-1.562-10.685-0.999  c-1.242-3.297-3.319-6.326-6.201-8.748l-16.338-13.715c-2.882-2.404-6.233-3.936-9.7-4.592c-0.039-3.515-0.953-7.076-2.835-10.341  l-10.661-18.463c-1.882-3.265-4.506-5.842-7.544-7.622c1.164-3.344,1.531-6.998,0.875-10.701l-3.702-21.009  c-0.656-3.702-2.241-7.013-4.483-9.747c2.242-2.726,3.827-6.045,4.483-9.747l3.702-21.001c0.656-3.71,0.289-7.365-0.875-10.7  c3.038-1.796,5.662-4.366,7.544-7.623l10.661-18.471c1.882-3.257,2.796-6.818,2.835-10.349c3.467-0.655,6.818-2.171,9.7-4.592  l16.338-13.707c2.882-2.421,4.952-5.451,6.201-8.755c3.483,0.57,7.146,0.297,10.685-0.992l20.041-7.295  c3.538-1.288,6.521-3.429,8.826-6.107c3.077,1.727,6.615,2.718,10.379,2.718h21.321c3.766,0,7.303-0.991,10.38-2.718  c2.296,2.679,5.296,4.819,8.825,6.107l20.041,7.295c3.546,1.281,7.201,1.562,10.685,0.992c1.233,3.304,3.327,6.334,6.201,8.755  l16.339,13.707c2.874,2.421,6.232,3.937,9.7,4.592c0.047,3.522,0.952,7.084,2.827,10.349l10.668,18.463  c1.891,3.265,4.515,5.835,7.545,7.631c-1.156,3.335-1.531,6.99-0.875,10.692l3.703,21.009c0.655,3.702,2.248,7.014,4.482,9.747  c-2.25,2.734-3.827,6.045-4.482,9.747l-3.703,21.009c-0.656,3.703-0.281,7.357,0.875,10.701c-3.03,1.78-5.654,4.357-7.545,7.622  l-10.668,18.463c-1.875,3.265-2.78,6.826-2.827,10.356c-3.468,0.641-6.826,2.172-9.7,4.576l-16.339,13.715  c-2.874,2.422-4.968,5.467-6.201,8.748c-3.483-0.562-7.139-0.281-10.685,0.999l-20.041,7.311c-3.529,1.28-6.529,3.421-8.825,6.092  C273.889,373.543,270.352,372.543,266.586,372.543z"/>
<path style="fill:#FECD57;" d="M447.867,255.922c0,105.999-85.943,191.941-191.941,191.941  c-106.007,0-191.941-85.942-191.941-191.941c0-106.007,85.935-191.941,191.941-191.941  C361.924,63.981,447.867,149.915,447.867,255.922z"/>
<path style="fill:#646C77;" d="M393.509,314.029c7.763-18.384,11.715-37.925,11.715-58.107c0-20.174-3.952-39.715-11.715-58.092  c-7.529-17.775-18.308-33.747-32.021-47.47c-13.715-13.723-29.694-24.492-47.454-32.014c-18.385-7.771-37.926-11.707-58.107-11.707  c-20.174,0-39.723,3.936-58.1,11.707c-17.768,7.521-33.74,18.291-47.462,32.014c-13.723,13.723-24.493,29.694-32.014,47.47  c-7.771,18.377-11.715,37.918-11.715,58.092c0,20.182,3.944,39.723,11.715,58.107c7.521,17.76,18.291,33.74,32.014,47.455  c13.722,13.729,29.694,24.492,47.462,32.021c18.377,7.763,37.926,11.715,58.1,11.715c20.182,0,39.723-3.952,58.107-11.715  c17.76-7.529,33.739-18.292,47.454-32.021C375.201,347.77,385.98,331.789,393.509,314.029z"/>
<path style="fill:#424953;" d="M404.584,269.715l-12.934,12.934l-30.163-30.163l30.163-30.162l12.012,12.027  c-1.812-12.559-5.187-24.781-10.153-36.521c-1-2.366-2.062-4.686-3.187-6.982l-28.835-28.843l5.654-5.662  c-1.812-2.038-3.702-4.03-5.654-5.982c-3.108-3.108-6.342-6.053-9.653-8.849l-5.436,5.412L321,121.518  c-2.281-1.109-4.624-2.171-6.967-3.171c-11.746-4.959-23.978-8.356-36.521-10.169l8.575,8.584l-30.162,30.162l-30.163-30.162  l8.583-8.584c-12.551,1.812-24.773,5.21-36.52,10.169c-2.359,1-4.686,2.062-6.982,3.171l-25.398,25.406l-5.42-5.412  c-3.327,2.796-6.552,5.74-9.661,8.849c-1.953,1.952-3.827,3.944-5.663,5.982l5.663,5.662l-28.843,28.843  c-1.109,2.297-2.171,4.624-3.171,6.982c-4.967,11.739-8.357,23.962-10.169,36.521l12.02-12.027l30.163,30.162l-30.163,30.163  l-12.934-12.934c1.391,15.292,5.1,30.146,11.083,44.314c0.062,0.141,0.132,0.281,0.195,0.438l1.656-1.656l30.163,30.147  l-8.857,8.872c2.804,3.312,5.748,6.561,8.857,9.654c1.944,1.951,3.944,3.842,5.982,5.654l9.099-9.092l30.163,30.163l-2.968,2.968  c1.71,0.797,3.437,1.578,5.186,2.328c14.16,5.982,29.015,9.684,44.307,11.074l-16.37-16.37l30.163-30.163l30.162,30.163  l-16.369,16.37c15.291-1.391,30.146-5.092,44.314-11.074c1.749-0.75,3.467-1.531,5.186-2.328l-2.968-2.968l30.147-30.163  l9.105,9.092c2.047-1.812,4.047-3.703,5.983-5.654c3.108-3.094,6.061-6.342,8.856-9.654l-8.856-8.872l30.163-30.147l1.655,1.656  c0.062-0.156,0.141-0.297,0.203-0.438C399.476,299.861,403.194,285.007,404.584,269.715z M376.576,207.249l-30.178,30.155  l-30.147-30.155l30.147-30.162L376.576,207.249z M331.324,252.485l-30.162,30.163l-30.155-30.163l30.155-30.154L331.324,252.485z   M301.162,131.843l30.162,30.162l-30.162,30.163l-30.155-30.163L301.162,131.843z M286.088,207.249l-30.162,30.155l-30.163-30.155  l30.163-30.162L286.088,207.249z M240.844,252.485l-30.163,30.163l-30.155-30.163l30.155-30.162L240.844,252.485z M210.682,131.843  l30.163,30.162l-30.163,30.163l-30.155-30.163L210.682,131.843z M135.283,207.249l30.163-30.162l30.163,30.162l-30.163,30.155  L135.283,207.249z M135.283,297.722l30.163-30.155l30.163,30.155l-30.163,30.179L135.283,297.722z M210.682,373.137l-30.155-30.179  l30.155-30.147l30.163,30.147L210.682,373.137z M225.763,297.722l30.163-30.155l30.162,30.155l-30.162,30.163L225.763,297.722z   M301.162,373.137l-30.155-30.179l30.155-30.147l30.162,30.147L301.162,373.137z M346.399,327.901l-30.148-30.179l30.147-30.155  l30.178,30.155L346.399,327.901z"/>
<g>
</g>
<g>
</g>
<g>
</g>
<g>
</g>
<g>
</g>
<g>
</g>
<g>
</g>
<g>
</g>
<g>
</g>
<g>
</g>
<g>
</g>
<g>
</g>
<g>
</g>
<g>
</g>
<g>
</g>
</svg>